<svg id="Layer_1" data-name="Layer 1" xmlns="http://www.w3.org/2000/svg" viewBox="0 0 131.82 36">
  <defs>
    <style>
      .cls-1 {
        fill: #0099d8;
      }

      .cls-2 {
        fill: #fff;
      }

    </style>
  </defs>
  <title>logo</title>
  <g id="blue-cross-bar">
    <polygon class="cls-1" points="0 23.98 131.82 23.98 131.82 36 0 36 0 23.98"/>
    <path class="cls-2" d="M3.48,32.57H5.83c1.35,0,2-.47,2-1.41A1.24,1.24,0,0,0,6.6,29.91a1.18,1.18,0,0,0,1.1-1.16c0-.92-0.75-1.33-2.28-1.33H3.48v5.15h0Zm1.38-3.06V28.35H5.42c0.59,0,.89.2,0.89,0.57s-0.28.59-.89,0.59H4.87Zm0,2.13V30.4H5.42c0.67,0,1,.19,1,0.61s-0.31.63-1,.63H4.87Z"/>
    <polygon class="cls-2" points="8.94 32.57 12.66 32.57 12.66 31.58 10.37 31.58 10.37 27.42 8.94 27.42 8.94 32.57"/>
    <path class="cls-2" d="M13.31,27.42v3.13c0,1.39.79,2.1,2.35,2.1s2.51-.72,2.51-2v-3.2H16.8v3.07a1,1,0,0,1-1,1.14,1,1,0,0,1-1-1.14V27.42H13.31Z"/>
    <polygon class="cls-2" points="19.47 32.57 23.34 32.57 23.34 31.54 20.86 31.54 20.86 30.44 23.16 30.44 23.16 29.46 20.86 29.46 20.86 28.41 23.27 28.41 23.27 27.42 19.47 27.42 19.47 32.57"/>
    <path class="cls-2" d="M32,30.91H30.48a0.77,0.77,0,0,1-.87.73c-0.71,0-1.07-.53-1.07-1.58s0.37-1.72,1.06-1.72a0.76,0.76,0,0,1,.87.69h1.46c0-1.09-.82-1.69-2.25-1.69-1.71,0-2.62,1-2.62,2.76a2.31,2.31,0,0,0,2.53,2.56C31.1,32.65,32,32,32,31c0,0,0,0,0-.05h0Z"/>
    <path class="cls-2" d="M33.09,32.57H34.5v-2H35a0.59,0.59,0,0,1,.7.54c0.06,0.3.08,0.79,0.2,1.45h1.54c-0.23-.8-0.24-1.42-0.34-1.78a0.93,0.93,0,0,0-1-.76v0a1.22,1.22,0,0,0,1.22-1.27c0-.87-0.65-1.32-1.92-1.32H33.08v5.16h0Zm1.41-2.94V28.38h0.59c0.59,0,.85.16,0.85,0.61s-0.24.65-.87,0.65H34.5Z"/>
    <path class="cls-2" d="M39.85,30c0-1.07.39-1.6,1.16-1.6s1.15,0.54,1.15,1.6-0.39,1.6-1.15,1.6-1.16-.54-1.16-1.6h0Zm-1.48,0A2.42,2.42,0,0,0,41,32.66,2.42,2.42,0,0,0,43.64,30,2.42,2.42,0,0,0,41,27.34,2.42,2.42,0,0,0,38.38,30h0Z"/>
    <path class="cls-2" d="M46,30.91H44.56c0,1.13.74,1.75,2.15,1.75,1.56,0,2.37-.59,2.37-1.63a1.48,1.48,0,0,0-1.37-1.47c-1-.27-1.6-0.31-1.6-0.77a0.59,0.59,0,0,1,.69-0.53,0.58,0.58,0,0,1,.65.65v0h1.43V28.84c0-1-.71-1.51-2.09-1.51s-2.15.68-2.15,1.53,0.56,1.26,1.73,1.57c0.78,0.21,1.22.24,1.22,0.7s-0.28.56-.84,0.56A0.7,0.7,0,0,1,46,30.95v0h0Z"/>
    <path class="cls-2" d="M51.45,30.91H50c0,1.13.74,1.75,2.15,1.75,1.56,0,2.37-.59,2.37-1.63a1.48,1.48,0,0,0-1.37-1.47c-1-.27-1.6-0.31-1.6-0.77a0.68,0.68,0,0,1,1.34.12v0h1.43V28.84c0-1-.71-1.51-2.09-1.51s-2.15.68-2.15,1.53,0.56,1.26,1.73,1.57c0.78,0.21,1.22.24,1.22,0.7s-0.28.56-.84,0.56a0.7,0.7,0,0,1-.76-0.75v0h0Z"/>
  </g>
  <g id="premera-text">
    <polygon points="102.96 17.98 102.96 0.01 103.85 0.01 103.85 17.98 102.96 17.98"/>
    <path d="M50.5,10.89l1-2.22c0.78-1.78,1.74-4,2.47-5.73a0.5,0.5,0,0,1,.52-0.28h3a0.25,0.25,0,0,1,.23.17,0.27,0.27,0,0,1-.21.24c-0.71.09-.92,0.4-0.84,1.46l1,9.38c0.08,1.05.25,1.35,0.86,1.48a0.23,0.23,0,0,1,.18.22,0.18,0.18,0,0,1-.19.19c-0.42,0-1.43-.13-2.08-0.13s-1.7.13-2.1,0.13a0.18,0.18,0,0,1-.19-0.19,0.23,0.23,0,0,1,.18-0.22c0.6-.13.74-0.41,0.67-1.46l-0.81-8-0.09.2c-1.15,2.51-2.81,6.24-4.39,9.58a0.29,0.29,0,0,1-.58,0c-1.81-4-3.47-7.37-4.45-9.58l-0.09-.2,0,0.22c-0.25,2.08-.81,5.9-0.83,7.77a1.19,1.19,0,0,0,.92,1.47,0.24,0.24,0,0,1,.19.21,0.21,0.21,0,0,1-.24.2c-0.57,0-1.1-.13-1.68-0.13s-1.1.14-1.63,0.14a0.21,0.21,0,0,1-.23-0.19,0.22,0.22,0,0,1,.19-0.22c0.63-.13.92-0.57,1-1.52,0.34-1.79.88-6.49,1.13-9.3,0.06-1-.28-1.37-1-1.46a0.24,0.24,0,0,1-.18-0.24,0.3,0.3,0,0,1,.25-0.21h3.43a0.23,0.23,0,0,1,.22.09,0.47,0.47,0,0,1,.05.1L46.24,3l2.55,5.7,1,2.19,0.28,0.64,0.08,0.19,0.37-.82h0Z"/>
    <path d="M21.75,3.58a7,7,0,0,0-1.81.14l0,10.17c0,1,.25,1.34.86,1.47a0.28,0.28,0,0,1,.19.23,0.18,0.18,0,0,1-.2.21c-0.4,0-1.41-.12-2.06-0.12s-1.7.13-2.1,0.13a0.18,0.18,0,0,1-.19-0.2,0.25,0.25,0,0,1,.18-0.23c0.61-.13.76-0.42,0.76-1.47V4.57c0-1-.25-1.34-0.89-1.47a0.3,0.3,0,0,1-.17-0.28,0.16,0.16,0,0,1,.19-0.16C18,2.8,21.74,2.6,23.15,2.6c2.1,0,4,1.29,4,3.43a4.06,4.06,0,0,1-2.68,3.25l-0.1,0a8.78,8.78,0,0,1,2.38,3.12c0.19,0.34.6,1.09,1,1.82s0.79,1.42,1,1.66a3.23,3.23,0,0,0,2.48,1.61,0.16,0.16,0,0,1,.13.1,0.42,0.42,0,0,1,0,.15,0.16,0.16,0,0,1-.16.19H30.08a4.21,4.21,0,0,1-3.9-1.85,16.29,16.29,0,0,1-1.12-1.62c-0.35-.58-0.81-1.46-1.3-2.31a9.14,9.14,0,0,0-1.51-2.09,4.23,4.23,0,0,0-1.62-.56H20.5L20.89,9c1.79,0,3.61-.64,3.61-2.71a2.53,2.53,0,0,0-2.75-2.73h0Z"/>
    <path d="M12.34,5.19a3.71,3.71,0,0,0-4-4,10.8,10.8,0,0,0-2.13.23l0,14.39c0,1.2.29,1.55,1,1.7a0.3,0.3,0,0,1,.21.25,0.2,0.2,0,0,1-.22.23c-0.46,0-1.54-.17-2.3-0.17S3,18,2.55,18a0.2,0.2,0,0,1-.21-0.22,0.27,0.27,0,0,1,.2-0.26c0.7-.15.94-0.49,0.94-1.7V2.3c0-1.2-.23-1.55-1-1.7A0.29,0.29,0,0,1,2.32.32,0.16,0.16,0,0,1,2.53.19C4.29,0.35,7.79.12,9.42,0.12c2.81,0,5.72,1.35,5.72,5S11.82,10.47,9,10.47a8.34,8.34,0,0,1-2.31-.32L7,9.46a10.17,10.17,0,0,0,1.22.11c1.45,0,4.07-.81,4.07-4.38h0Z"/>
    <path d="M86.55,15.37a0.16,0.16,0,0,1,.14.1,0.42,0.42,0,0,1,0,.15,0.16,0.16,0,0,1-.16.19h-2.2a2.25,2.25,0,0,1-1.82-.7c0-.05-0.21-0.26-0.37-0.48l-0.59-.82c-0.44-.62-1-1.33-1.31-1.79s-0.47-.64-0.69-0.92a5.6,5.6,0,0,0-.72-0.77,4.21,4.21,0,0,0-.61-0.41A2.59,2.59,0,0,0,77,9.55H76.9L77.29,9c1.79,0,3.56-.73,3.56-2.8a2.43,2.43,0,0,0-2.7-2.63,11,11,0,0,0-1.81.14L76.29,13.89c0,1,.25,1.34.86,1.47a0.28,0.28,0,0,1,.19.23,0.17,0.17,0,0,1-.2.21c-0.4,0-1.46-.15-2.12-0.15s-1.6.15-2,.15a0.18,0.18,0,0,1-.19-0.2A0.25,0.25,0,0,1,73,15.36c0.61-.13.76-0.42,0.76-1.47V4.57c0-1-.25-1.34-0.89-1.47a0.3,0.3,0,0,1-.16-0.28,0.16,0.16,0,0,1,.19-0.16c1.53,0.14,5-.06,6.43-0.06,2.1,0,4.09,1.29,4.09,3.43,0,1.54-1,2.76-2.88,3.32l-0.17.05,0.17,0.06a3.18,3.18,0,0,1,1.1.74,6.72,6.72,0,0,1,.52.59c0.16,0.2.29,0.39,0.42,0.55,0.48,0.65,1,1.46,1.44,2,1.12,1.44,1.82,2,2.52,2h0Z"/>
    <path d="M88.22,11.27l-1.89,4.15-1.26-.58C87,10.67,89.61,4.79,90.78,2.44a0.39,0.39,0,0,1,.66,0c1.2,2.39,5.71,11.48,5.71,11.48a2.12,2.12,0,0,0,1.44,1.5,0.25,0.25,0,0,1,.19.21,0.15,0.15,0,0,1-.18.16c-0.4,0-1.5-.12-2.16-0.12s-1.72.12-2.12,0.12a0.23,0.23,0,0,1-.23-0.17,0.17,0.17,0,0,1,.17-0.2c0.65-.16.62-0.53,0.22-1.44-0.07-.17-0.43-0.85-0.77-1.5l-0.46-.86-0.15-.27-4.89-.09h0Zm4.33-1.09S91.1,6.88,90.74,6.1L90.69,6l-2,4.2h3.83Z"/>
    <path d="M69.1,8.25L68.46,9.34H64.2V13.6c0,0.8.1,1,.9,1.13a23.51,23.51,0,0,0,3.54,0,2.55,2.55,0,0,0,1.73-1.59A0.31,0.31,0,0,1,70.74,13a0.43,0.43,0,0,1,.12.1,0.19,0.19,0,0,1,0,.17c-0.13.6-.42,1.79-0.52,2.13a0.54,0.54,0,0,1-.66.45c-1.42,0-4.31-.12-6-0.12-0.82,0-2.37,0-2.78,0a0.19,0.19,0,0,1-.19-0.21,0.24,0.24,0,0,1,.18-0.24c0.61-.13.76-0.42,0.76-1.47V4.54c0-1.05-.16-1.34-0.76-1.47a0.23,0.23,0,0,1-.18-0.22,0.18,0.18,0,0,1,.19-0.19h8.83a0.56,0.56,0,0,1,.63.52l0.18,1.46a0.24,0.24,0,0,1-.2.25A0.32,0.32,0,0,1,70,4.7,1.63,1.63,0,0,0,69.45,4,2.09,2.09,0,0,0,68,3.7H64.2V8.25h4.9Z"/>
    <path d="M38.16,8.25L37.53,9.34H33.27V13.6c0,0.8.1,1,.9,1.13a23.5,23.5,0,0,0,3.54,0,2.55,2.55,0,0,0,1.73-1.59A0.31,0.31,0,0,1,39.8,13a0.43,0.43,0,0,1,.12.1,0.19,0.19,0,0,1,0,.17c-0.13.6-.42,1.79-0.52,2.13a0.54,0.54,0,0,1-.66.45c-1.42,0-4.31-.12-6-0.12-0.82,0-2.37,0-2.78,0a0.19,0.19,0,0,1-.19-0.21A0.24,0.24,0,0,1,30,15.36c0.61-.13.76-0.42,0.76-1.47V4.54c0-1.05-.16-1.34-0.76-1.47a0.23,0.23,0,0,1-.18-0.22A0.18,0.18,0,0,1,30,2.67h8.83a0.56,0.56,0,0,1,.63.52l0.18,1.46a0.24,0.24,0,0,1-.2.25,0.32,0.32,0,0,1-.32-0.19A1.62,1.62,0,0,0,38.51,4a2.09,2.09,0,0,0-1.44-.26H33.27V8.25h4.9Z"/>
  </g>
  <g id="cross-logo">
    <ellipse class="cls-2" cx="119.19" cy="9" rx="5.26" ry="5.18"/>
    <path class="cls-1" d="M128.33,5V13h-5v5h-7.94V13h-5V5h5V0h7.94V5h5Zm-9.44.78A0.64,0.64,0,1,1,120,5.35a0.63,0.63,0,0,1-.18.44,0.64,0.64,0,0,0,.45,1.09h3.56a4.93,4.93,0,0,0-8.89,0h3.53a0.63,0.63,0,0,0,.45-1.08h0Zm-0.3,2.74a0.6,0.6,0,0,0-.53-0.88l-3.32-.37a4.93,4.93,0,0,0,1.56,5.57l2.27-4.28,0,0h0Zm1,1a0.32,0.32,0,0,0-.24-0.11,0.33,0.33,0,0,0-.24.11l-2.42,3.62a4.92,4.92,0,0,0,5.34,0L119.58,9.5h0ZM124,7.29l-3.33.37a0.61,0.61,0,0,0-.65.6,0.59,0.59,0,0,0,.07.28l2.31,4.34A4.93,4.93,0,0,0,124,7.29h0Zm-5.7-1.23c0,0.17,0,.22-0.09.22h-2.14a4.3,4.3,0,0,1,2.15-1.41,1.24,1.24,0,0,0,.09,1.18h0Zm4.39,0.22h-2.2a0.13,0.13,0,0,1-.12-0.12,1.47,1.47,0,0,0,.24-0.77,1.26,1.26,0,0,0-.11-0.53,4.28,4.28,0,0,1,2.2,1.42h0ZM118,8.45l-1.8,3.38A4.26,4.26,0,0,1,115.09,9a4.33,4.33,0,0,1,.12-1l2.65,0.29a0.12,0.12,0,0,1,.12.12l0,0.07h0Zm1.52,1.91,1.68,2.52a4.29,4.29,0,0,1-3.62,0l1.69-2.52a0.14,0.14,0,0,1,.12-0.07,0.15,0.15,0,0,1,.13.08h0Zm1.3-2a0.12,0.12,0,0,1,.12-0.12L123.52,8a4.28,4.28,0,0,1-.94,3.85L120.8,8.45l0-.07h0Z"/>
    <path class="cls-1" d="M125.47,17.78a1,1,0,1,0-1-1,1,1,0,0,0,1,1h0Zm-1.2-1a1.19,1.19,0,1,1,1.2,1.2,1.18,1.18,0,0,1-1.2-1.2h0Z"/>
    <path class="cls-1" d="M125.47,16.7c0.18,0,.33,0,0.33-0.22s-0.15-.2-0.29-0.2h-0.28V16.7h0.25Zm-0.25.77H125V16.1h0.52a0.39,0.39,0,0,1,.48.39,0.36,0.36,0,0,1-.35.38l0.39,0.61h-0.23l-0.36-.6h-0.24v0.6h0Z"/>
  </g>
</svg>
